<svg xmlns="http://www.w3.org/2000/svg" width="26" height="26" viewBox="0 0 26 26" fill="none">
  <g clip-path="url(#clip0_6094_36169)">
    <path d="M25.7343 12.6199C25.7348 10.2086 25.0444 7.84762 23.7447 5.81655C22.445 3.78547 20.5905 2.16937 18.4008 1.15959C16.2111 0.149817 13.7779 -0.211341 11.3893 0.118882C9.00067 0.449105 6.75672 1.45688 4.92312 3.02288C3.08951 4.58887 1.74305 6.64751 1.04316 8.95502C0.343274 11.2625 0.319273 13.7223 0.974001 16.043C1.62873 18.3638 2.93477 20.4482 4.73746 22.0497C6.54016 23.6512 8.76402 24.7026 11.1457 25.0794V16.2663H7.94254V12.6199H11.1457V9.8394C11.0768 9.19032 11.1514 8.53402 11.3644 7.91701C11.5773 7.29999 11.9234 6.73738 12.378 6.26903C12.8327 5.80069 13.3848 5.43808 13.9952 5.2069C14.6056 4.97573 15.2594 4.88164 15.9102 4.93133C16.8566 4.94375 17.8008 5.02599 18.7349 5.17736V8.28591H17.1452C16.8744 8.2505 16.5991 8.27644 16.3396 8.3618C16.0802 8.44716 15.8433 8.58977 15.6464 8.77907C15.4496 8.96836 15.2978 9.19951 15.2023 9.4554C15.1069 9.71128 15.0702 9.98535 15.0949 10.2573V12.6231H18.5945L18.0347 16.2694H15.0886V25.0872C18.0571 24.6176 20.7606 23.1038 22.7122 20.8182C24.6639 18.5326 25.7356 15.6253 25.7343 12.6199Z" fill="#262626"/>
  </g>
  <defs>
    <clipPath id="clip0_6094_36169">
      <rect width="25.2343" height="25.2343" fill="white" transform="translate(0.5)"/>
    </clipPath>
  </defs>
</svg>