<svg xmlns="http://www.w3.org/2000/svg" width="26" height="26" viewBox="0 0 26 26" fill="none">
  <path d="M7.72459 0C3.6121 0 0.268188 3.34391 0.268188 7.4564V17.7806C0.268188 21.8931 3.6121 25.237 7.72459 25.237H18.0488C22.1613 25.237 25.5052 21.8931 25.5052 17.7806V7.4564C25.5052 3.34391 22.1613 0 18.0488 0H7.72459ZM19.7695 4.58855C20.4005 4.58855 20.9167 5.10476 20.9167 5.73569C20.9167 6.36662 20.4005 6.88283 19.7695 6.88283C19.1386 6.88283 18.6224 6.36662 18.6224 5.73569C18.6224 5.10476 19.1386 4.58855 19.7695 4.58855ZM12.8867 6.30926C16.3683 6.30926 19.196 9.13696 19.196 12.6185C19.196 16.1001 16.3683 18.9278 12.8867 18.9278C9.40514 18.9278 6.57745 16.1001 6.57745 12.6185C6.57745 9.13696 9.40514 6.30926 12.8867 6.30926ZM12.8867 7.4564C10.0418 7.4564 7.72459 9.77362 7.72459 12.6185C7.72459 15.4634 10.0418 17.7806 12.8867 17.7806C15.7316 17.7806 18.0488 15.4634 18.0488 12.6185C18.0488 9.77362 15.7316 7.4564 12.8867 7.4564Z" fill="#262626"/>
</svg>