<svg xmlns="http://www.w3.org/2000/svg" width="26" height="26" viewBox="0 0 26 26" fill="none">
  <path fill-rule="evenodd" clip-rule="evenodd" d="M24.5511 7.99447C25.1164 9.42619 25.4268 10.9866 25.4268 12.6185C25.4268 14.2504 25.1164 15.8109 24.5511 17.2426C22.6828 16.6714 20.5167 16.2315 18.1563 15.9631C18.3179 13.7363 18.3179 11.5007 18.1563 9.27393C20.5167 9.00559 22.6828 8.56564 24.5511 7.99447ZM1.0666 17.2426C0.501319 15.8109 0.190918 14.2504 0.190918 12.6185C0.190918 10.9866 0.501319 9.42619 1.0666 7.99447C2.9349 8.56564 5.10097 9.00559 7.46136 9.27393C7.29975 11.5007 7.29975 13.7363 7.46136 15.9631C5.10097 16.2315 2.9349 16.6714 1.0666 17.2426ZM16.4832 15.805C14.0371 15.6199 11.5806 15.6199 9.1345 15.805C9.06216 14.7804 9.02346 13.7138 9.02346 12.6185C9.02346 11.5233 9.06216 10.4566 9.1345 9.43207C11.5806 9.61717 14.0371 9.61717 16.4832 9.43207C16.5555 10.4566 16.5942 11.5233 16.5942 12.6185C16.5942 13.7138 16.5555 14.7804 16.4832 15.805ZM23.7763 18.8577C22.1528 21.7055 19.4876 23.8122 16.3419 24.7342C17.0821 22.9635 17.6642 20.5375 17.9898 17.7313C20.1121 17.9719 22.0687 18.3572 23.7763 18.8577ZM14.2372 25.1565C13.288 25.2639 12.3297 25.2639 11.3805 25.1565C11.1929 24.8453 11.0137 24.4878 10.843 24.0907C10.1423 22.4613 9.60221 20.201 9.29853 17.5748C10.4341 17.4899 11.6076 17.4461 12.8088 17.4461C14.0101 17.4461 15.1835 17.4899 16.3191 17.5748C16.0155 20.201 15.4754 22.4613 14.7747 24.0907C14.604 24.4878 14.4248 24.8453 14.2372 25.1565ZM9.27582 24.7342C6.13007 23.8122 3.46484 21.7055 1.84134 18.8577C3.54897 18.3572 5.50559 17.9719 7.62792 17.7313C7.95346 20.5375 8.53557 22.9635 9.27582 24.7342ZM1.84134 6.37938C3.46484 3.53155 6.13007 1.42482 9.27582 0.502791C8.53557 2.27351 7.95346 4.69951 7.62792 7.50574C5.50559 7.26516 3.54897 6.87989 1.84134 6.37938ZM11.3805 0.080511C12.3297 -0.026837 13.288 -0.026837 14.2372 0.080511C14.4248 0.391753 14.604 0.749261 14.7747 1.1463C15.4754 2.7757 16.0155 5.03599 16.3191 7.6622C15.1835 7.74716 14.0101 7.7909 12.8088 7.7909C11.6076 7.7909 10.4341 7.74716 9.29853 7.6622C9.60221 5.03599 10.1423 2.7757 10.843 1.1463C11.0137 0.749261 11.1929 0.391753 11.3805 0.080511ZM16.3419 0.502791C19.4876 1.42482 22.1528 3.53155 23.7763 6.37938C22.0687 6.87989 20.1121 7.26516 17.9898 7.50574C17.6642 4.69951 17.0821 2.27351 16.3419 0.502791Z" fill="#262626"/>
</svg>