<svg xmlns="http://www.w3.org/2000/svg" width="32" height="23" viewBox="0 0 32 23" fill="none">
  <path d="M30.3517 4.23461C30.0671 2.68819 28.7109 1.56202 27.137 1.21044C24.7817 0.718771 20.4228 0.367188 15.7067 0.367188C10.9935 0.367188 6.56479 0.718771 4.20675 1.21044C2.63565 1.56202 1.27663 2.61677 0.991992 4.23461C0.704562 5.99253 0.419922 8.45361 0.419922 11.6179C0.419922 14.7821 0.704562 17.2432 1.06176 19.0011C1.34919 20.5475 2.70541 21.6737 4.27651 22.0253C6.77688 22.517 11.0632 22.8685 15.7793 22.8685C20.4954 22.8685 24.7817 22.517 27.2821 22.0253C28.8532 21.6737 30.2094 20.619 30.4969 19.0011C30.7815 17.2432 31.1387 14.7107 31.2112 11.6179C31.0661 8.45361 30.7089 5.99253 30.3517 4.23461ZM11.8502 16.54V6.69569L20.5652 11.6179L11.8502 16.54Z" fill="#262626"/>
</svg>